<?xml version="1.0" encoding="UTF-8"?> <svg xmlns="http://www.w3.org/2000/svg" xmlns:xlink="http://www.w3.org/1999/xlink" version="1.1" id="Layer_1" x="0px" y="0px" viewBox="0 0 1142.3 620.9" style="enable-background:new 0 0 1142.3 620.9;" xml:space="preserve"> <style type="text/css"> .st0{fill:currentColor;} .st1{fill:currentColor;} </style> <g> <polygon class="st0" points="540.9,82.6 483,82.6 483,5 436.5,5 436.5,202.8 483,202.8 483,127.1 540.9,127.1 540.9,202.8 587.4,202.8 587.4,5 540.9,5 "></polygon> <path class="st0" d="M691,0c-27.4,0-48.4,9-63.2,27s-22.1,43.6-22.1,76.9s7.4,59,22.1,76.9c14.8,18,35.8,27,63.2,27s48.4-9,63.2-27 s22.1-43.6,22.1-76.9s-7.4-59-22.1-76.9C739.5,9,718.4,0,691,0z M720.1,149.8c-6.5,10.3-16.2,15.5-29.1,15.5 c-12.9,0-22.6-5.1-29.1-15.5c-6.5-10.3-9.8-25.6-9.8-45.9s3.2-35.6,9.8-45.9c6.5-10.3,16.2-15.5,29.1-15.5s22.5,5.2,29.1,15.5 c6.5,10.3,9.8,25.6,9.8,45.9S726.6,139.5,720.1,149.8z"></path> <polygon class="st0" points="915.8,66.8 911.6,160.8 906.7,160.8 898.5,49.5 848.8,49.5 838.9,160.8 834,160.8 829.7,66.8 824.8,5 782,5 799.8,202.8 860.2,202.8 869.8,92.5 874.8,92.5 882.9,202.8 943.8,202.8 961.6,5 920.8,5 "></polygon> <polygon class="st0" points="761,252.3 813.1,252.3 813.1,361.1 761,361.1 761,405.7 911.8,405.7 911.8,361.1 859.6,361.1 859.6,252.3 911.8,252.3 911.8,207.8 761,207.8 "></polygon> <polygon class="st0" points="928.1,252.3 988.2,252.3 988.2,405.7 1034.7,405.7 1034.7,252.3 1094.8,252.3 1094.8,207.8 928.1,207.8 "></polygon> <g> <polygon class="st1" points="361.6,479.9 357.4,573.9 352.5,573.9 344.3,462.6 294.6,462.6 284.7,573.9 279.7,573.9 275.6,479.9 270.6,418 227.8,418 245.6,615.9 306,615.9 315.6,505.6 320.6,505.6 328.7,615.9 389.6,615.9 407.4,418 366.6,418 "></polygon> <path class="st1" d="M498.5,413.1c-27.4,0-48.4,9-63.2,27s-22.1,43.6-22.1,76.9s7.4,59,22.1,76.9c14.8,18,35.8,27,63.2,27 s48.4-9,63.2-27s22.1-43.6,22.1-76.9s-7.4-59-22.1-76.9C547,422.1,525.9,413.1,498.5,413.1z M527.6,562.9 c-6.5,10.3-16.2,15.5-29.1,15.5s-22.5-5.2-29.1-15.5c-6.5-10.3-9.8-25.6-9.8-45.9s3.2-35.6,9.8-45.9c6.5-10.3,16.2-15.5,29.1-15.5 s22.5,5.2,29.1,15.5c6.5,10.3,9.8,25.6,9.8,45.9C537.3,537.3,534.1,552.6,527.6,562.9z"></path> <path class="st1" d="M726.1,532.2c10.1-5,18.1-12,23.9-20.8s8.7-18.8,8.7-30c0-12.7-2.8-23.8-8.4-33.3 c-5.6-9.5-13.4-16.9-23.5-22.1c-10.1-5.3-21.8-7.9-35.4-7.9h-88.2V616h46.5v-76.2h11.2l48.9,76.2h53.7l-52.8-78.3 C716.2,536.4,721.3,534.6,726.1,532.2L726.1,532.2z M649.7,462.6h39.1c7.2,0,12.9,1.7,17.1,5.1c4.1,3.4,6.2,8,6.2,13.7 s-2.1,10.4-6.2,13.7s-9.8,5.1-17.1,5.1h-39.1V462.6L649.7,462.6z"></path> <polygon class="st1" points="883.5,418 829.1,506.1 829.1,418 782.6,418 782.6,615.9 829.1,615.9 829.1,535.4 877,615.9 930,615.9 871.9,518.5 933.9,418 "></polygon> <path class="st1" d="M991.7,460.2c5.4-3.7,13.2-5.6,23.2-5.6s17.6,2,23.5,6.1s9.9,9.9,11.9,17.7h44.5c-1-14-4.7-25.9-11.2-35.5 s-15.5-17-27.1-22.1c-11.5-5.1-25.4-7.7-41.6-7.7c-16.2,0-29.5,2.6-41.1,7.8c-11.5,5.2-20.4,12.6-26.6,22.1 c-6.2,9.6-9.3,21-9.3,34.4c0,17,5.2,30.9,15.5,41.7s24.6,17.3,42.9,19.4l29.7,3.5c6.1,0.7,10.8,2.5,14.2,5.4 c3.4,3,5.1,6.7,5.1,11.1c0,6.6-2.6,11.7-7.9,15.3s-12.8,5.4-22.5,5.4c-8.9,0-16.1-1.6-21.6-4.8s-9.3-7.9-11.2-14h-46.5 c1,12.9,4.7,23.8,11.2,32.8s15.5,15.8,27.1,20.5c11.5,4.7,25.2,7,41.1,7c15.9,0,29.2-2.6,40.6-7.7c11.4-5.1,20.1-12.5,26.2-22 c6.1-9.5,9.2-20.9,9.2-34.1c0-17-5.2-30.9-15.5-41.7s-24.6-17.3-42.9-19.4l-29.7-3.5c-6.1-0.8-10.8-2.7-14.2-5.6s-5.1-6.5-5.1-11 C983.5,469.1,986.3,463.9,991.7,460.2L991.7,460.2z"></path> </g> </g> </svg> 