<?xml version="1.0" encoding="utf-8" ?>
<svg baseProfile="tiny" height="640" version="1.2" width="640" xmlns="http://www.w3.org/2000/svg" xmlns:ev="http://www.w3.org/2001/xml-events" xmlns:xlink="http://www.w3.org/1999/xlink"><defs /><path d="M 208,80 L 207,81 L 204,81 L 203,82 L 201,82 L 200,83 L 198,83 L 197,84 L 196,84 L 194,86 L 193,86 L 191,88 L 190,88 L 184,94 L 184,95 L 181,98 L 181,99 L 180,100 L 180,102 L 178,104 L 178,108 L 177,109 L 177,126 L 178,127 L 178,131 L 179,132 L 179,133 L 180,134 L 180,135 L 181,136 L 181,137 L 183,139 L 183,140 L 191,148 L 192,148 L 194,150 L 195,150 L 196,151 L 197,151 L 198,152 L 199,152 L 200,153 L 203,153 L 204,154 L 206,154 L 207,155 L 218,155 L 219,156 L 229,156 L 230,157 L 232,157 L 233,158 L 235,158 L 236,159 L 237,159 L 238,160 L 240,160 L 242,162 L 243,162 L 245,164 L 246,164 L 253,171 L 253,172 L 256,175 L 256,176 L 258,178 L 258,179 L 259,180 L 259,181 L 260,182 L 260,183 L 261,184 L 261,185 L 262,186 L 262,187 L 263,188 L 263,190 L 264,191 L 264,192 L 265,193 L 265,194 L 266,195 L 266,198 L 267,199 L 267,201 L 268,202 L 268,204 L 269,205 L 269,209 L 270,210 L 270,213 L 271,214 L 271,217 L 272,218 L 272,222 L 273,223 L 273,230 L 274,231 L 274,237 L 275,238 L 275,246 L 276,247 L 276,263 L 277,264 L 277,282 L 276,283 L 236,283 L 235,282 L 225,282 L 224,281 L 217,281 L 216,280 L 210,280 L 209,279 L 204,279 L 203,278 L 200,278 L 199,277 L 196,277 L 195,276 L 192,276 L 191,275 L 189,275 L 188,274 L 187,274 L 186,273 L 184,273 L 183,272 L 182,272 L 181,271 L 180,271 L 179,270 L 178,270 L 177,269 L 176,269 L 175,268 L 174,268 L 172,266 L 171,266 L 168,263 L 167,263 L 161,257 L 161,256 L 158,253 L 158,252 L 156,250 L 156,249 L 154,247 L 154,246 L 153,245 L 153,244 L 152,243 L 152,242 L 151,241 L 151,240 L 150,239 L 150,237 L 149,236 L 149,234 L 148,233 L 148,232 L 147,231 L 147,229 L 146,228 L 146,224 L 145,223 L 145,221 L 144,220 L 144,217 L 143,216 L 143,210 L 142,209 L 142,205 L 141,204 L 141,197 L 140,196 L 140,153 L 139,152 L 139,144 L 138,143 L 138,141 L 137,140 L 137,137 L 136,136 L 136,135 L 135,134 L 135,133 L 134,132 L 134,131 L 132,129 L 132,128 L 124,120 L 123,120 L 122,119 L 121,119 L 120,118 L 118,118 L 117,117 L 116,117 L 115,116 L 111,116 L 110,115 L 98,115 L 97,116 L 93,116 L 92,117 L 91,117 L 90,118 L 88,118 L 87,119 L 86,119 L 84,121 L 83,121 L 74,130 L 74,131 L 72,133 L 72,134 L 71,135 L 71,136 L 70,137 L 70,138 L 69,139 L 69,143 L 68,144 L 68,162 L 67,163 L 67,468 L 68,469 L 68,479 L 69,480 L 69,484 L 70,485 L 70,486 L 71,487 L 71,488 L 72,488 L 73,489 L 72,490 L 73,491 L 73,492 L 75,494 L 75,495 L 81,501 L 82,501 L 85,504 L 86,504 L 87,505 L 88,505 L 89,506 L 90,506 L 91,507 L 94,507 L 95,508 L 99,508 L 100,509 L 107,509 L 108,508 L 112,508 L 113,507 L 116,507 L 117,506 L 118,506 L 119,505 L 120,505 L 121,504 L 122,504 L 123,503 L 124,503 L 127,500 L 128,500 L 128,499 L 131,496 L 131,495 L 133,493 L 133,492 L 134,491 L 134,490 L 135,489 L 135,488 L 136,487 L 136,486 L 137,485 L 137,483 L 138,482 L 138,480 L 139,479 L 139,473 L 140,472 L 140,430 L 141,429 L 141,421 L 142,420 L 142,414 L 143,413 L 143,407 L 144,406 L 144,403 L 145,402 L 145,399 L 146,398 L 146,395 L 147,394 L 147,391 L 148,390 L 148,389 L 149,388 L 149,387 L 150,386 L 150,384 L 151,383 L 151,382 L 152,381 L 152,380 L 153,379 L 153,378 L 155,376 L 155,375 L 157,373 L 157,372 L 159,370 L 159,369 L 171,357 L 172,357 L 175,354 L 176,354 L 178,352 L 179,352 L 180,351 L 181,351 L 182,350 L 183,350 L 184,349 L 185,349 L 186,348 L 187,348 L 188,347 L 191,347 L 192,346 L 194,346 L 195,345 L 197,345 L 198,344 L 200,344 L 201,343 L 206,343 L 207,342 L 210,342 L 211,341 L 216,341 L 217,340 L 228,340 L 229,339 L 243,339 L 244,338 L 276,338 L 277,339 L 277,358 L 276,359 L 276,375 L 275,376 L 275,383 L 274,384 L 274,390 L 273,391 L 273,398 L 272,399 L 272,403 L 271,404 L 271,408 L 270,409 L 270,412 L 269,413 L 269,416 L 268,417 L 268,419 L 267,420 L 267,422 L 266,423 L 266,426 L 265,427 L 265,428 L 264,429 L 264,430 L 263,431 L 263,433 L 262,434 L 262,435 L 261,436 L 261,437 L 260,438 L 260,439 L 259,440 L 259,441 L 258,442 L 258,443 L 256,445 L 256,446 L 253,449 L 253,450 L 248,455 L 247,455 L 244,458 L 243,458 L 241,460 L 240,460 L 239,461 L 238,461 L 237,462 L 236,462 L 235,463 L 232,463 L 231,464 L 229,464 L 228,465 L 224,465 L 223,466 L 202,466 L 201,467 L 199,467 L 198,468 L 197,468 L 196,469 L 195,469 L 193,471 L 192,471 L 184,479 L 184,480 L 182,482 L 182,483 L 181,484 L 181,487 L 180,488 L 180,490 L 179,491 L 179,497 L 178,498 L 178,503 L 179,504 L 179,509 L 180,510 L 180,513 L 181,514 L 181,516 L 182,517 L 182,518 L 183,519 L 183,520 L 184,521 L 184,522 L 186,524 L 186,525 L 192,531 L 193,531 L 195,533 L 196,533 L 198,535 L 199,535 L 200,536 L 201,536 L 202,537 L 205,537 L 206,538 L 209,538 L 210,539 L 414,539 L 415,538 L 419,538 L 420,537 L 422,537 L 423,536 L 424,536 L 425,535 L 427,535 L 428,534 L 429,534 L 431,532 L 432,532 L 441,523 L 441,522 L 443,520 L 443,519 L 445,517 L 445,515 L 446,514 L 446,512 L 447,511 L 447,507 L 448,506 L 448,496 L 447,495 L 447,491 L 446,490 L 446,488 L 445,487 L 445,484 L 443,482 L 443,481 L 442,480 L 442,479 L 434,471 L 433,471 L 431,469 L 430,469 L 429,468 L 428,468 L 427,467 L 425,467 L 424,466 L 402,466 L 401,465 L 397,465 L 396,464 L 393,464 L 392,463 L 390,463 L 389,462 L 388,462 L 386,460 L 385,460 L 384,459 L 383,459 L 381,457 L 380,457 L 372,449 L 372,448 L 369,445 L 369,444 L 367,442 L 367,441 L 366,440 L 366,439 L 365,438 L 365,437 L 364,436 L 364,435 L 363,434 L 363,432 L 362,431 L 362,430 L 361,429 L 361,428 L 360,427 L 360,425 L 359,424 L 359,421 L 358,420 L 358,418 L 357,417 L 357,414 L 356,413 L 356,409 L 355,408 L 355,405 L 354,404 L 354,400 L 353,399 L 353,391 L 352,390 L 352,386 L 351,385 L 351,378 L 350,377 L 350,360 L 349,359 L 349,339 L 350,338 L 384,338 L 385,339 L 397,339 L 398,340 L 408,340 L 409,341 L 414,341 L 415,342 L 418,342 L 419,343 L 424,343 L 425,344 L 428,344 L 429,345 L 431,345 L 432,346 L 434,346 L 435,347 L 437,347 L 438,348 L 439,348 L 440,349 L 441,349 L 442,350 L 443,350 L 444,351 L 445,351 L 446,352 L 447,352 L 448,353 L 449,353 L 451,355 L 452,355 L 454,357 L 455,357 L 467,369 L 467,370 L 469,372 L 469,373 L 471,375 L 471,376 L 472,377 L 472,378 L 474,380 L 474,381 L 475,382 L 475,383 L 476,384 L 476,386 L 477,387 L 477,388 L 478,389 L 478,390 L 479,391 L 479,393 L 480,394 L 480,397 L 481,398 L 481,400 L 482,401 L 482,405 L 483,406 L 483,411 L 484,412 L 484,417 L 485,418 L 485,424 L 486,425 L 486,441 L 487,442 L 487,473 L 488,474 L 488,479 L 489,480 L 489,484 L 490,485 L 490,486 L 491,487 L 491,488 L 492,489 L 492,490 L 493,491 L 493,492 L 494,492 L 495,493 L 494,494 L 496,496 L 496,497 L 500,501 L 501,501 L 503,503 L 504,503 L 505,504 L 506,504 L 507,505 L 508,505 L 509,506 L 510,506 L 511,507 L 516,507 L 517,508 L 530,508 L 531,507 L 535,507 L 536,506 L 537,506 L 538,505 L 539,505 L 540,504 L 541,504 L 542,503 L 543,503 L 544,502 L 545,502 L 552,495 L 552,494 L 554,492 L 554,491 L 555,490 L 555,489 L 556,488 L 556,487 L 557,486 L 557,483 L 558,482 L 558,480 L 559,479 L 559,217 L 560,216 L 560,189 L 559,188 L 559,146 L 558,145 L 558,141 L 557,140 L 557,137 L 556,136 L 556,135 L 555,134 L 555,133 L 554,132 L 554,131 L 551,128 L 551,127 L 547,123 L 546,123 L 544,121 L 543,121 L 541,119 L 540,119 L 539,118 L 537,118 L 536,117 L 535,117 L 534,116 L 531,116 L 530,115 L 516,115 L 515,116 L 512,116 L 511,117 L 510,117 L 509,118 L 507,118 L 506,119 L 505,119 L 503,121 L 502,121 L 493,130 L 493,131 L 492,132 L 492,133 L 491,134 L 491,135 L 490,136 L 490,137 L 489,138 L 489,141 L 488,142 L 488,145 L 487,146 L 487,179 L 486,180 L 486,200 L 485,201 L 485,207 L 484,208 L 484,212 L 483,213 L 483,218 L 482,219 L 482,221 L 481,222 L 481,225 L 480,226 L 480,227 L 479,228 L 479,231 L 478,232 L 478,234 L 477,235 L 477,236 L 476,237 L 476,239 L 475,240 L 475,241 L 473,243 L 473,244 L 472,245 L 472,246 L 471,247 L 471,248 L 469,250 L 469,251 L 467,253 L 467,254 L 454,267 L 453,267 L 451,269 L 450,269 L 449,270 L 448,270 L 447,271 L 446,271 L 445,272 L 444,272 L 443,273 L 442,273 L 441,274 L 439,274 L 438,275 L 436,275 L 435,276 L 432,276 L 431,277 L 429,277 L 428,278 L 426,278 L 425,279 L 419,279 L 418,280 L 414,280 L 413,281 L 407,281 L 406,282 L 391,282 L 390,283 L 350,283 L 349,282 L 349,262 L 350,261 L 350,245 L 351,244 L 351,237 L 352,236 L 352,230 L 353,229 L 353,222 L 354,221 L 354,218 L 355,217 L 355,213 L 356,212 L 356,208 L 357,207 L 357,204 L 358,203 L 358,202 L 359,201 L 359,199 L 360,198 L 360,195 L 361,194 L 361,192 L 362,191 L 362,190 L 363,189 L 363,187 L 364,186 L 363,185 L 363,184 L 364,183 L 365,184 L 365,183 L 366,182 L 366,181 L 367,180 L 367,179 L 369,177 L 369,176 L 371,174 L 371,173 L 381,163 L 382,163 L 384,161 L 385,161 L 386,160 L 387,160 L 388,159 L 389,159 L 390,158 L 392,158 L 393,157 L 395,157 L 396,156 L 402,156 L 403,155 L 418,155 L 419,154 L 423,154 L 424,153 L 426,153 L 427,152 L 428,152 L 429,151 L 430,151 L 431,150 L 432,150 L 435,147 L 436,147 L 441,142 L 441,141 L 443,139 L 443,138 L 445,136 L 445,135 L 446,134 L 446,133 L 447,132 L 447,130 L 448,129 L 448,126 L 449,125 L 449,119 L 450,118 L 450,115 L 449,114 L 449,109 L 448,108 L 448,106 L 447,105 L 447,104 L 446,103 L 446,101 L 445,100 L 445,99 L 442,96 L 442,95 L 434,87 L 433,87 L 431,85 L 430,85 L 429,84 L 428,84 L 427,83 L 426,83 L 425,82 L 423,82 L 422,81 L 420,81 L 419,80 Z" fill="rgb(100,149,237)" stroke="none" /></svg>