<?xml version="1.0" encoding="UTF-8"?> <svg xmlns="http://www.w3.org/2000/svg" id="Layer_1" viewBox="0 0 569.14 233.81"><defs><style>.cls-1{fill:#fff;}</style></defs><polygon class="cls-1" points="49.77 23 48.21 57.96 46.37 57.96 43.33 16.56 24.84 16.56 21.16 57.96 19.32 57.96 17.76 23 15.92 0 0 0 6.62 73.6 29.07 73.6 32.66 32.57 34.5 32.57 37.54 73.6 60.17 73.6 66.79 0 51.61 0 49.77 23"></polygon><polygon class="cls-1" points="89.5 45.45 111.03 45.45 111.03 73.6 128.32 73.6 128.32 0 111.03 0 111.03 28.89 89.5 28.89 89.5 0 72.2 0 72.2 73.6 89.5 73.6 89.5 45.45"></polygon><path class="cls-1" d="m154.67,53.36h21.88l4.79,20.24h17.2L180.88,0h-29.44l-17.66,73.6h16.1l4.79-20.24Zm11.86-42.32l6.1,25.76h-14.04l6.1-25.76h1.84Z"></path><polygon class="cls-1" points="217.71 73.6 235 73.6 235 16.56 257.36 16.56 257.36 0 195.35 0 195.35 16.56 217.71 16.56 217.71 73.6"></polygon><polygon class="cls-1" points="47.65 154.04 62.73 154.04 62.73 80.44 40.1 80.44 35.04 115.03 33.2 115.03 28.14 80.44 4.77 80.44 4.77 154.04 19.86 154.04 19.86 124.6 18.76 96.08 20.6 96.08 25.66 131.04 41.85 131.04 46.91 96.08 48.75 96.08 47.65 124.6 47.65 154.04"></polygon><path class="cls-1" d="m85.5,80.44l-17.66,73.6h16.1l4.79-20.24h21.88l4.79,20.24h17.2l-17.66-73.6h-29.44Zm7.15,36.8l6.1-25.76h1.84l6.1,25.76h-14.04Z"></path><polygon class="cls-1" points="196.02 80.44 177.26 80.44 157.02 113.17 157.02 80.44 139.72 80.44 139.72 154.04 157.02 154.04 157.02 124.09 174.86 154.04 194.55 154.04 172.93 117.79 196.02 80.44"></polygon><polygon class="cls-1" points="202.49 154.04 254.01 154.04 254.01 139.32 219.79 139.32 219.79 124.78 250.33 124.78 250.33 110.43 219.79 110.43 219.79 95.16 254.93 95.16 254.93 80.44 202.49 80.44 202.49 154.04"></polygon><path class="cls-1" d="m313.4,116.64c-3.83-4.02-9.15-6.42-15.96-7.22l-11.04-1.29c-2.27-.31-4.03-1-5.29-2.07-1.26-1.07-1.89-2.44-1.89-4.09,0-2.51,1.01-4.46,3.04-5.84s4.91-2.07,8.65-2.07,6.53.75,8.74,2.25c2.21,1.5,3.68,3.7,4.42,6.58h16.56c-.37-5.21-1.76-9.61-4.19-13.2-2.42-3.59-5.78-6.33-10.07-8.23-4.29-1.9-9.45-2.85-15.46-2.85s-10.98.97-15.27,2.9c-4.29,1.93-7.59,4.68-9.89,8.23-2.3,3.56-3.45,7.82-3.45,12.79,0,6.32,1.92,11.49,5.75,15.5,3.83,4.02,9.15,6.43,15.96,7.22l11.04,1.29c2.27.25,4.03.92,5.29,2.02,1.26,1.1,1.89,2.48,1.89,4.14,0,2.45-.98,4.36-2.94,5.7-1.96,1.35-4.75,2.02-8.37,2.02-3.31,0-6-.6-8.05-1.79-2.06-1.2-3.45-2.93-4.19-5.2h-17.3c.37,4.78,1.76,8.85,4.19,12.19,2.42,3.34,5.78,5.89,10.07,7.64,4.29,1.75,9.38,2.62,15.27,2.62s10.86-.95,15.09-2.85,7.48-4.63,9.75-8.19c2.27-3.56,3.4-7.79,3.4-12.7,0-6.32-1.92-11.48-5.75-15.5Z"></path><path class="cls-1" d="m407.04,127.36v-46h-16.56v45.45c0,4.48-1.06,7.96-3.17,10.44-2.12,2.48-5.08,3.73-8.88,3.73s-6.69-1.2-8.83-3.59c-2.15-2.39-3.22-5.73-3.22-10.03v-46h-17.3v46c0,9.26,2.51,16.48,7.54,21.67,5.03,5.18,12.17,7.77,21.44,7.77s16.41-2.59,21.44-7.77c5.03-5.18,7.54-12.4,7.54-21.67Z"></path><path class="cls-1" d="m468.24,145.76c2.27-3.56,3.4-7.79,3.4-12.7,0-6.32-1.92-11.48-5.75-15.5-3.83-4.02-9.15-6.42-15.96-7.22l-11.04-1.29c-2.27-.31-4.03-1-5.29-2.07-1.26-1.07-1.89-2.44-1.89-4.09,0-2.51,1.01-4.46,3.04-5.84s4.91-2.07,8.65-2.07,6.53.75,8.74,2.25c2.21,1.5,3.68,3.7,4.42,6.58h16.56c-.37-5.21-1.76-9.61-4.19-13.2-2.42-3.59-5.78-6.33-10.07-8.23-4.29-1.9-9.45-2.85-15.46-2.85s-10.98.97-15.27,2.9c-4.29,1.93-7.59,4.68-9.89,8.23-2.3,3.56-3.45,7.82-3.45,12.79,0,6.32,1.92,11.49,5.75,15.5,3.83,4.02,9.15,6.43,15.96,7.22l11.04,1.29c2.27.25,4.03.92,5.29,2.02,1.26,1.1,1.89,2.48,1.89,4.14,0,2.45-.98,4.36-2.94,5.7-1.96,1.35-4.75,2.02-8.37,2.02-3.31,0-6-.6-8.05-1.79-2.06-1.2-3.45-2.93-4.19-5.2h-17.3c.37,4.78,1.76,8.85,4.19,12.19,2.42,3.34,5.78,5.89,10.07,7.64,4.29,1.75,9.38,2.62,15.27,2.62s10.86-.95,15.09-2.85,7.48-4.63,9.75-8.19Z"></path><path class="cls-1" d="m30.53,160.21H4.77v73.6h25.76c10.86,0,19.24-3.22,25.16-9.66,5.92-6.44,8.88-15.49,8.88-27.14s-2.96-20.78-8.88-27.19c-5.92-6.41-14.31-9.61-25.16-9.61Zm12.51,52.35c-2.82,3.5-6.99,5.24-12.51,5.24h-8.46v-41.58h8.46c5.52,0,9.69,1.75,12.51,5.24,2.82,3.5,4.23,8.68,4.23,15.55s-1.41,12.05-4.23,15.55Z"></path><polygon class="cls-1" points="68.51 176.77 87.92 176.77 87.92 217.25 68.51 217.25 68.51 233.81 124.63 233.81 124.63 217.25 105.22 217.25 105.22 176.77 124.63 176.77 124.63 160.21 68.51 160.21 68.51 176.77"></polygon><polygon class="cls-1" points="134.06 233.81 151.36 233.81 151.36 206.76 181.9 206.76 181.9 191.68 151.36 191.68 151.36 176.77 186.5 176.77 186.5 160.21 134.06 160.21 134.06 233.81"></polygon><polygon class="cls-1" points="195.56 233.81 212.86 233.81 212.86 206.76 243.4 206.76 243.4 191.68 212.86 191.68 212.86 176.77 248 176.77 248 160.21 195.56 160.21 195.56 233.81"></polygon><polygon class="cls-1" points="256.65 233.81 308.17 233.81 308.17 219.09 273.95 219.09 273.95 204.56 304.49 204.56 304.49 190.2 273.95 190.2 273.95 174.93 309.09 174.93 309.09 160.21 256.65 160.21 256.65 233.81"></polygon><path class="cls-1" d="m362.95,202.67c3.77-1.87,6.73-4.45,8.88-7.73,2.15-3.28,3.22-7.01,3.22-11.18,0-4.72-1.04-8.85-3.13-12.37-2.09-3.53-5-6.27-8.74-8.23-3.74-1.96-8.13-2.94-13.16-2.94h-32.75v73.6h17.3v-28.34h4.16l18.19,28.34h19.96l-19.65-29.12c2.02-.47,3.93-1.13,5.71-2.02Zm-28.38-25.9h14.54c2.7,0,4.81.63,6.35,1.89,1.53,1.26,2.3,2.96,2.3,5.11s-.77,3.85-2.3,5.11c-1.53,1.26-3.65,1.89-6.35,1.89h-14.54v-13.98Z"></path><polygon class="cls-1" points="383.96 233.81 435.48 233.81 435.48 219.09 401.26 219.09 401.26 204.56 431.8 204.56 431.8 190.2 401.26 190.2 401.26 174.93 436.4 174.93 436.4 160.21 383.96 160.21 383.96 233.81"></polygon><polygon class="cls-1" points="485.97 191.49 486.89 220.93 485.05 220.93 471.44 160.21 443.84 160.21 443.84 233.81 459.29 233.81 459.29 202.53 458.37 173.09 460.21 173.09 473.83 233.81 501.43 233.81 501.43 160.21 485.97 160.21 485.97 191.49"></polygon><polygon class="cls-1" points="507.13 160.21 507.13 176.77 529.49 176.77 529.49 233.81 546.78 233.81 546.78 176.77 569.14 176.77 569.14 160.21 507.13 160.21"></polygon></svg> 