<?xml version="1.0" encoding="UTF-8"?> <svg xmlns="http://www.w3.org/2000/svg" xmlns:xlink="http://www.w3.org/1999/xlink" version="1.1" id="Layer_1" x="0px" y="0px" viewBox="0 0 1641.1 702" style="enable-background:new 0 0 1641.1 702;" xml:space="preserve"> <style type="text/css"> .st0{fill:currentColor;} .st1{fill:currentColor;} </style> <polygon class="st0" points="68.3,203.9 116.2,203.9 116.2,128.4 184.5,0 136.1,0 100.4,69.1 96.8,88.2 91.5,88.2 87.9,69.1 52.5,0 0,0 68.3,128.4 "></polygon> <path class="st0" d="M196.3,186.3c15.2,18.5,36.9,27.8,65.1,27.8s49.9-9.3,65.1-27.8c15.2-18.5,22.8-44.9,22.8-79.2 s-7.6-60.7-22.8-79.2C311.3,9.3,289.6,0,261.4,0s-49.9,9.3-65.1,27.8c-15.2,18.5-22.8,44.9-22.8,79.2S181.1,167.8,196.3,186.3z M231.4,59.8c6.7-10.6,16.7-15.9,29.9-15.9s23.2,5.3,29.9,15.9s10.1,26.4,10.1,47.3s-3.4,36.7-10.1,47.3 c-6.7,10.6-16.7,15.9-29.9,15.9s-23.2-5.3-29.9-15.9s-10.1-26.4-10.1-47.3S224.7,70.4,231.4,59.8L231.4,59.8z"></path> <path class="st0" d="M526.1,5.1h-45.9V131c0,12.4-2.9,22-8.8,28.9c-5.9,6.9-14.1,10.3-24.6,10.3s-18.5-3.3-24.5-9.9 c-6-6.6-8.9-15.9-8.9-27.8V5.1h-47.9v127.4c0,25.6,7,45.7,20.9,60c13.9,14.4,33.7,21.5,59.4,21.5s45.4-7.2,59.4-21.5 c13.9-14.4,20.9-34.4,20.9-60L526.1,5.1L526.1,5.1z"></path> <path class="st0" d="M600,130.5h11.5L662,209h55.3l-54.4-80.7c5.6-1.3,10.9-3.1,15.8-5.6c10.5-5.2,18.6-12.3,24.6-21.4 c5.9-9.1,8.9-19.4,8.9-31c0-13.1-2.9-24.5-8.7-34.3c-5.8-9.8-13.8-17.4-24.2-22.8c-10.4-5.4-22.5-8.1-36.4-8.1h-90.7V209H600V130.5 L600,130.5z M600,51h40.3c7.5,0,13.3,1.7,17.6,5.2c4.2,3.5,6.4,8.2,6.4,14.1s-2.1,10.7-6.4,14.1c-4.2,3.5-10.1,5.2-17.6,5.2H600V51 L600,51z"></path> <polygon class="st0" points="852.1,133.7 849,54.7 854.1,54.7 868.1,151.5 913,151.5 927,54.7 932.1,54.7 929,133.7 929,215.3 970.8,215.3 970.8,11.4 908.1,11.4 894.1,107.2 889,107.2 875,11.4 810.3,11.4 810.3,215.3 852.1,215.3 "></polygon> <polygon class="st0" points="1145.6,169.4 1091.9,169.4 1091.9,57.3 1145.6,57.3 1145.6,11.4 990.2,11.4 990.2,57.3 1043.9,57.3 1043.9,169.4 990.2,169.4 990.2,215.3 1145.6,215.3 "></polygon> <polygon class="st0" points="1281.8,98 1284.4,179.6 1279.3,179.6 1241.5,11.4 1165.1,11.4 1165.1,215.3 1207.9,215.3 1207.9,128.6 1205.4,47.1 1210.4,47.1 1248.2,215.3 1324.6,215.3 1324.6,11.4 1281.8,11.4 "></polygon> <path class="st0" d="M1421.6,11.4h-71.3v203.9h71.3c30.1,0,53.3-8.9,69.7-26.8c16.4-17.8,24.6-42.9,24.6-75.2s-8.2-57.6-24.6-75.3 C1474.9,20.3,1451.7,11.4,1421.6,11.4z M1456.3,156.4c-7.8,9.7-19.4,14.5-34.7,14.5h-23.4V55.7h23.4c15.3,0,26.8,4.8,34.7,14.5 c7.8,9.7,11.7,24,11.7,43.1S1464.1,146.7,1456.3,156.4L1456.3,156.4z"></path> <path class="st0" d="M494,219.5c-28.2,0-49.9,9.3-65.1,27.8c-15.2,18.5-22.8,44.9-22.8,79.3s7.6,60.7,22.8,79.2 c15.2,18.5,36.9,27.8,65.1,27.8c28.2,0,49.9-9.3,65.1-27.8c15.2-18.5,22.8-44.9,22.8-79.2s-7.6-60.7-22.8-79.2 C543.9,228.8,522.2,219.5,494,219.5L494,219.5z M524,373.8c-6.7,10.6-16.7,15.9-29.9,15.9s-23.2-5.3-29.9-15.9S454,347.4,454,326.5 s3.4-36.6,10.1-47.3c6.7-10.6,16.7-15.9,29.9-15.9s23.2,5.3,29.9,15.9s10.1,26.4,10.1,47.3S530.7,363.2,524,373.8z"></path> <polygon class="st0" points="682.9,428.5 759.4,428.5 759.4,224.6 716.6,224.6 716.6,311.2 719.1,392.8 714,392.8 676.3,224.6 599.9,224.6 599.9,428.5 642.7,428.5 642.7,341.8 640.1,260.3 645.2,260.3 "></polygon> <path class="st0" d="M920.1,230.5h-71.3v203.9h71.3c30.1,0,53.3-8.9,69.7-26.8c16.4-17.8,24.6-42.9,24.6-75.2s-8.2-57.5-24.6-75.3 C973.4,239.4,950.2,230.5,920.1,230.5L920.1,230.5z M954.8,375.5c-7.8,9.7-19.4,14.5-34.7,14.5h-23.4V274.9h23.4 c15.3,0,26.8,4.8,34.7,14.5c7.8,9.7,11.7,24,11.7,43.1S962.6,365.9,954.8,375.5L954.8,375.5z"></path> <path class="st0" d="M1144.8,356.4c0,12.4-2.9,22-8.8,28.9s-14.1,10.3-24.6,10.3s-18.5-3.3-24.5-9.9c-5.9-6.6-8.9-15.9-8.9-27.8 V230.5h-47.9v127.4c0,25.6,7,45.7,20.9,60c13.9,14.4,33.7,21.5,59.4,21.5s45.4-7.2,59.4-21.5c13.9-14.4,20.9-34.4,20.9-60V230.5 h-45.9L1144.8,356.4L1144.8,356.4z"></path> <polygon class="st0" points="1206.4,276.4 1268.3,276.4 1268.3,434.4 1316.2,434.4 1316.2,276.4 1378.2,276.4 1378.2,230.5 1206.4,230.5 "></polygon> <polygon class="st0" points="1520.5,230.5 1484.9,299.6 1481.3,318.7 1475.9,318.7 1472.4,299.6 1437,230.5 1384.5,230.5 1452.8,359 1452.8,434.4 1500.7,434.4 1500.7,359 1569,230.5 "></polygon> <path class="st1" d="M355.5,588.3c18.7-8.2,32.3-17.6,40.8-28.4S409,535.8,409,520c0-14.4-3.2-26.9-9.6-37.5 c-6.4-10.5-15.4-18.6-27.1-24.3c-11.7-5.7-25.6-8.5-41.8-8.5s-29.9,2.9-41.8,8.5s-21.2,13.9-28,24.7c-6.8,10.8-10.7,23.8-11.7,39.1 h45.9c2-9.2,6.1-16.2,12.2-21.1c6.1-4.9,13.9-7.4,23.4-7.4s17.4,2.3,22.7,6.9c5.3,4.6,7.9,11.1,7.9,19.6c0,6.3-1.9,11.8-5.6,16.6 c-3.7,4.8-9.5,9-17.3,12.7l-83.6,40v69.3h149.3v-45.9h-93.3v-5.1L355.5,588.3L355.5,588.3z"></path> <path class="st1" d="M602.8,564.4h-33.6V454.8h-83.8l-63.5,91.7v63.7h99.4v48.4h47.9v-48.4h33.6L602.8,564.4L602.8,564.4z M463.9,564.4v-5.1l57.3-81.8v86.9H463.9L463.9,564.4z"></path> <polygon class="st1" points="601.5,702 645.8,702 743.2,442.5 698.8,442.5 "></polygon> <polygon class="st1" points="760.5,500.7 869.3,500.7 869.3,505.7 786.7,658.6 840.5,658.6 908.3,527.7 908.3,454.8 760.5,454.8 "></polygon> </svg> 